<?xml version="1.0" encoding="utf-8"?>
<!-- Generator: Adobe Illustrator 14.0.0, SVG Export Plug-In  -->
<!DOCTYPE svg PUBLIC "-//W3C//DTD SVG 1.1//EN" "http://www.w3.org/Graphics/SVG/1.1/DTD/svg11.dtd" [
	<!ENTITY ns_flows "http://ns.adobe.com/Flows/1.0/">
]>
<svg version="1.1"
	 xmlns="http://www.w3.org/2000/svg" xmlns:xlink="http://www.w3.org/1999/xlink" xmlns:a="http://ns.adobe.com/AdobeSVGViewerExtensions/3.0/"
	 x="0px" y="0px" width="100px" height="100px" viewBox="-1.76 -1.667 100 100" enable-background="new -1.76 -1.667 100 100"
	 xml:space="preserve">
<defs>
</defs>
<linearGradient id="SVGID_1_" gradientUnits="userSpaceOnUse" x1="45.7886" y1="-1.6816" x2="51.1183" y2="100.0147">
	<stop  offset="0" style="stop-color:#FFFFFF"/>
	<stop  offset="1" style="stop-color:#FF925C"/>
</linearGradient>
<path fill="url(#SVGID_1_)" d="M96.907,84.492c0,7.643-6.306,13.842-14.082,13.842H14.081C6.304,98.333,0,92.134,0,84.492V13.844
	C0,6.197,6.304,0,14.081,0h68.745c7.776,0,14.082,6.197,14.082,13.844V84.492z"/>
<path fill="#973333" d="M25.471,28.134c0-1.128,0.576-2.568,0.768-2.568c0.12,0,0.72,3.624,4.128,3.624
	c0.984,0,2.136-0.504,2.136-1.728c0-2.472-6.48-1.824-6.48-6.601c0-2.928,2.352-4.512,4.944-4.512c3,0,4.656,1.8,4.656,2.28
	c0,0.456-1.344,2.4-1.896,2.4c-0.624,0-0.768-1.848-2.977-1.848c-0.744,0-1.752,0.336-1.752,1.056c0,2.472,7.009,2.424,7.009,7.296
	c0,3.121-2.592,4.896-5.473,4.896C27.991,32.431,25.471,30.943,25.471,28.134z"/>
<path fill="#973333" d="M39.007,32.071c-0.84,0-0.744-8.041-0.744-8.593c0-1.128-0.096-11.881,0.984-11.881h2.28
	c0.264,0,0.984-0.072,0.984,0.456c0,0.144-1.008,3.6-1.008,9.577c0,6.601,0.912,9.841,0.912,10.153c0,0.408-0.624,0.288-0.888,0.288
	H39.007z"/>
<path fill="#973333" d="M45.487,32.071c-1.176,0-1.272,0.504-1.272-7.945c0-8.208,0.384-7.417,1.176-7.417h1.32
	c1.008,0,1.032,0.072,1.032,0.36c0,0.888-0.288,1.776-0.288,4.393c0,6.048,0.936,9.769,0.936,9.985c0,0.768-0.72,0.624-1.272,0.624
	H45.487z M44.479,13.253c0-1.032,0.888-1.656,1.848-1.656s1.848,0.624,1.848,1.656c0,1.032-0.888,1.584-1.848,1.584
	S44.479,14.285,44.479,13.253z"/>
<path fill="#973333" d="M55.039,32.071c-2.688,0-5.041-2.376-5.041-7.225c0-5.497,3.648-8.497,5.762-8.497
	c0.504,0,1.031,0.552,1.367,0.552c0.48,0,0.553-0.864,0.553-1.248c0-1.944-0.601-2.808-0.601-3.72c0-0.336,0.601-0.336,0.841-0.336
	h2.496c1.08,0,0.984,10.753,0.984,11.881c0,0.552,0.096,8.593-0.744,8.593H55.039z M58.159,23.142c0-4.225-0.647-4.513-1.536-4.513
	c-1.031,0-3.385,1.344-3.385,5.713c0,1.656,0.625,4.224,2.665,4.224C58.496,28.566,58.159,24.87,58.159,23.142z"/>
<path fill="#973333" d="M63.006,25.038c0-5.809,3.217-8.688,6.434-8.688c2.641,0,4.871,1.488,4.871,4.32
	c0,5.16-7.728,4.08-7.728,6.577c0,1.128,1.823,1.944,3.024,1.944c3.936,0,3.936-3,4.271-3c0.361,0,0.432,1.248,0.432,1.44
	c0,3.048-2.352,4.8-5.232,4.8C64.783,32.431,63.006,28.878,63.006,25.038z M66.246,22.662c0,0.264,0.121,0.528,0.433,0.528
	c0.288,0,4.657-0.96,4.657-2.184c0-1.176-1.105-1.824-2.018-1.824C67.375,19.182,66.246,21.27,66.246,22.662z"/>
<path fill="#973333" d="M23.212,79.806c-0.816,0-1.32,0.768-1.32-6.337c0-10.104-0.312-9.793,2.952-9.793
	c0.504,0,1.032,0.024,1.032,0.384c0,0.288-0.288,0.744-0.288,1.08c0,0.24,0.24,0.408,0.48,0.408c0.288,0,0.624-0.288,1.152-0.552
	c0.528-0.288,1.248-0.552,2.256-0.552c1.176,0,1.944,1.104,2.544,1.104c0.336,0,0.816-0.072,1.416-0.432
	c0.6-0.336,1.344-0.672,2.208-0.672c4.416,0,4.32,5.784,4.32,8.856c0,7.32-0.912,6.505-1.608,6.505h-1.632
	c-0.24,0-0.912,0.047-0.912-0.385s0.912-3.072,0.912-7.08c0-4.584-1.632-5.064-2.544-5.064c-0.84,0-1.632-0.072-1.632,3.889
	c0,8.616-0.12,8.641-0.888,8.641H29.5c-0.456,0-0.84,0.096-0.84-0.24c0-0.36,0.912-5.185,0.912-7.465c0-1.44,0-4.824-1.968-4.824
	c-1.8,0-2.472,2.208-2.472,5.784c0,4.824,0.672,5.736,0.672,6.409c0,0.407-0.432,0.336-0.696,0.336H23.212z"/>
<path fill="#973333" d="M47.524,69.821c0.696-0.12,1.248-0.24,1.248-1.032c0-1.225-1.272-1.872-2.328-1.872
	c-2.448,0-2.088,2.064-2.616,2.064c-0.768,0-1.608-0.937-1.608-1.968c0-1.777,1.992-2.929,4.201-2.929
	c0.768,0,4.057-0.024,5.28,3.336c0.505,1.392,0.552,8.497,0.552,9.337c0,1.057,0.192,1.68,0.192,2.496
	c0,0.504-2.257,0.553-4.393,0.553c-5.784,0-6.192-2.977-6.192-4.417C41.859,72.365,44.836,70.277,47.524,69.821z M49.012,74.021
	c0-0.84,0.144-1.848-1.008-1.848c-1.416,0-2.904,1.199-2.904,2.664c0,1.344,1.176,2.137,2.448,2.137
	c1.416,0,1.464-0.721,1.464-1.896V74.021z"/>
<path fill="#973333" d="M55.42,79.806c-0.84,0-0.744-8.041-0.744-8.594c0-1.127-0.096-11.881,0.984-11.881h2.567
	c0.312,0,0.576,0.145,0.576,0.528c0,0.479-0.864,2.688-0.888,8.929c0,0.84,0,1.92,0.312,1.92c0.816,0,3.001-3.168,3.001-5.76
	c0-0.601,0.24-0.504,0.744-0.504h1.463c0.48,0,1.033-0.145,1.033,0.527c0,3.313-2.617,5.473-2.617,5.953
	c0,0.504,0.984,0.888,1.969,2.111c0.984,1.225,1.969,3.265,1.969,6.121c0,0.72-0.457,0.648-1.057,0.648h-1.944
	c-0.647,0-0.864,0.023-0.888-0.744c-0.024-3.313-1.584-5.977-2.305-5.977c-0.313,0-1.416,0.359-1.416,1.512
	c0,2.928,0.6,4.488,0.6,4.92c0,0.265-0.24,0.289-0.6,0.289H55.42z"/>
<path fill="#973333" d="M66.387,72.773c0-5.809,3.217-8.688,6.434-8.688c2.641,0,4.871,1.487,4.871,4.32
	c0,5.16-7.729,4.08-7.729,6.577c0,1.127,1.824,1.943,3.025,1.943c3.936,0,3.936-3,4.271-3c0.361,0,0.432,1.248,0.432,1.439
	c0,3.049-2.352,4.801-5.232,4.801C68.164,80.166,66.387,76.613,66.387,72.773z M69.627,70.397c0,0.264,0.121,0.528,0.434,0.528
	c0.287,0,4.656-0.961,4.656-2.185c0-1.177-1.105-1.824-2.018-1.824C70.756,66.917,69.627,69.005,69.627,70.397z"/>
<path fill="#973333" d="M39.147,50.339c-0.288,0-0.828,0.09-0.828-0.324c0-0.18,0.306-1.98,1.008-1.98h2.665
	c0.288,0,0.829-0.09,0.829,0.324c0,0.18-0.306,1.98-1.008,1.98H39.147z"/>
<path fill="#973333" d="M51.804,54.859c-1.243,0-0.126-1.116-2.935-6.806c-0.234-0.486-1.818-3.511-2.395-3.511
	c-0.45,0-0.324,1.962-0.324,2.323c0,5.077,0.738,6.914,0.738,7.832c0,0.234-0.342,0.162-0.504,0.162h-1.674
	c-0.45,0-0.99,0.342-0.99-6.41c0-8.895,0.936-8.57,1.242-8.57h1.422c0.684,0,2.053,1.44,5.42,7.67
	c0.054,0.09,0.144,0.324,0.306,0.324c0.18,0,0.145-0.774,0.145-1.026c0-3.367-0.918-6.356-0.918-6.77
	c0-0.252,0.396-0.198,0.738-0.198h1.367c0.396,0,1.243-0.324,1.243,8.57c0,6.752-0.54,6.41-0.991,6.41H51.804z"/>
<path fill="#973333" d="M56.409,50.339c-0.288,0-0.828,0.09-0.828-0.324c0-0.18,0.306-1.98,1.009-1.98h2.664
	c0.289,0,0.828-0.09,0.828,0.324c0,0.18-0.306,1.98-1.008,1.98H56.409z"/>
<path fill="#00A5E7" d="M26.782,27.997c0-1.128,0.576-2.568,0.768-2.568c0.12,0,0.72,3.624,4.128,3.624
	c0.984,0,2.136-0.504,2.136-1.728c0-2.472-6.48-1.824-6.48-6.601c0-2.928,2.352-4.512,4.944-4.512c3,0,4.656,1.8,4.656,2.28
	c0,0.456-1.344,2.4-1.896,2.4c-0.624,0-0.768-1.848-2.977-1.848c-0.744,0-1.752,0.336-1.752,1.056c0,2.472,7.009,2.424,7.009,7.296
	c0,3.121-2.592,4.896-5.473,4.896C29.302,32.293,26.782,30.806,26.782,27.997z"/>
<path fill="#00A5E7" d="M40.318,31.934c-0.84,0-0.744-8.041-0.744-8.593c0-1.128-0.096-11.881,0.984-11.881h2.28
	c0.264,0,0.984-0.072,0.984,0.456c0,0.144-1.008,3.6-1.008,9.577c0,6.601,0.912,9.841,0.912,10.153c0,0.408-0.624,0.288-0.888,0.288
	H40.318z"/>
<path fill="#00A5E7" d="M46.798,31.934c-1.176,0-1.272,0.504-1.272-7.945c0-8.208,0.384-7.417,1.176-7.417h1.32
	c1.008,0,1.032,0.072,1.032,0.36c0,0.888-0.288,1.776-0.288,4.393c0,6.048,0.936,9.769,0.936,9.985c0,0.768-0.719,0.624-1.271,0.624
	H46.798z M45.791,13.116c0-1.032,0.888-1.656,1.848-1.656s1.849,0.624,1.849,1.656c0,1.032-0.889,1.584-1.849,1.584
	S45.791,14.148,45.791,13.116z"/>
<path fill="#00A5E7" d="M56.351,31.934c-2.688,0-5.041-2.376-5.041-7.225c0-5.497,3.648-8.497,5.762-8.497
	c0.504,0,1.031,0.552,1.367,0.552c0.48,0,0.553-0.864,0.553-1.248c0-1.944-0.602-2.808-0.602-3.72c0-0.336,0.602-0.336,0.842-0.336
	h2.496c1.08,0,0.984,10.753,0.984,11.881c0,0.552,0.096,8.593-0.744,8.593H56.351z M59.47,23.005c0-4.225-0.646-4.513-1.535-4.513
	c-1.031,0-3.385,1.344-3.385,5.713c0,1.656,0.625,4.224,2.664,4.224C59.808,28.429,59.47,24.733,59.47,23.005z"/>
<path fill="#00A5E7" d="M64.317,24.901c0-5.809,3.217-8.688,6.434-8.688c2.641,0,4.871,1.488,4.871,4.32
	c0,5.16-7.729,4.08-7.729,6.577c0,1.128,1.824,1.944,3.025,1.944c3.936,0,3.936-3,4.271-3c0.361,0,0.432,1.248,0.432,1.44
	c0,3.048-2.352,4.8-5.232,4.8C66.095,32.293,64.317,28.741,64.317,24.901z M67.558,22.525c0,0.264,0.121,0.528,0.432,0.528
	c0.289,0,4.658-0.96,4.658-2.184c0-1.176-1.105-1.824-2.018-1.824C68.687,19.044,67.558,21.133,67.558,22.525z"/>
<path fill="#00A5E7" d="M39.757,50.339c-0.288,0-0.828,0.09-0.828-0.324c0-0.18,0.306-1.98,1.008-1.98h2.665
	c0.287,0,0.828-0.09,0.828,0.324c0,0.18-0.307,1.98-1.008,1.98H39.757z"/>
<path fill="#00A5E7" d="M52.414,54.859c-1.243,0-0.126-1.116-2.935-6.806c-0.234-0.486-1.819-3.511-2.395-3.511
	c-0.451,0-0.324,1.962-0.324,2.323c0,5.077,0.737,6.914,0.737,7.832c0,0.234-0.342,0.162-0.504,0.162h-1.675
	c-0.449,0-0.99,0.342-0.99-6.41c0-8.895,0.937-8.57,1.242-8.57h1.423c0.684,0,2.053,1.44,5.42,7.67
	c0.054,0.09,0.144,0.324,0.306,0.324c0.18,0,0.145-0.774,0.145-1.026c0-3.367-0.918-6.356-0.918-6.77
	c0-0.252,0.396-0.198,0.738-0.198h1.367c0.396,0,1.243-0.324,1.243,8.57c0,6.752-0.54,6.41-0.991,6.41H52.414z"/>
<path fill="#00A5E7" d="M57.02,50.339c-0.288,0-0.828,0.09-0.828-0.324c0-0.18,0.306-1.98,1.009-1.98h2.664
	c0.289,0,0.828-0.09,0.828,0.324c0,0.18-0.306,1.98-1.008,1.98H57.02z"/>
<path fill="#00A5E7" d="M24.051,79.839c-0.816,0-1.32,0.768-1.32-6.337c0-10.104-0.312-9.793,2.952-9.793
	c0.504,0,1.032,0.024,1.032,0.384c0,0.288-0.288,0.744-0.288,1.08c0,0.24,0.24,0.408,0.48,0.408c0.288,0,0.624-0.288,1.152-0.552
	c0.528-0.288,1.248-0.552,2.256-0.552c1.176,0,1.944,1.104,2.544,1.104c0.336,0,0.816-0.072,1.416-0.432
	c0.6-0.336,1.344-0.672,2.208-0.672c4.416,0,4.32,5.784,4.32,8.856c0,7.32-0.912,6.505-1.608,6.505h-1.632
	c-0.24,0-0.912,0.047-0.912-0.385s0.912-3.072,0.912-7.08c0-4.584-1.632-5.064-2.544-5.064c-0.84,0-1.632-0.072-1.632,3.889
	c0,8.616-0.12,8.641-0.888,8.641h-2.16c-0.456,0-0.84,0.096-0.84-0.24c0-0.36,0.912-5.185,0.912-7.465c0-1.44,0-4.824-1.968-4.824
	c-1.8,0-2.472,2.208-2.472,5.784c0,4.824,0.672,5.736,0.672,6.409c0,0.407-0.432,0.336-0.696,0.336H24.051z"/>
<path fill="#00A5E7" d="M48.363,69.854c0.695-0.12,1.248-0.24,1.248-1.032c0-1.225-1.272-1.872-2.328-1.872
	c-2.449,0-2.089,2.064-2.617,2.064c-0.768,0-1.608-0.937-1.608-1.968c0-1.777,1.993-2.929,4.201-2.929
	c0.769,0,4.056-0.024,5.28,3.336c0.504,1.392,0.553,8.497,0.553,9.337c0,1.057,0.191,1.68,0.191,2.496
	c0,0.504-2.256,0.553-4.393,0.553c-5.784,0-6.192-2.977-6.192-4.417C42.698,72.398,45.675,70.31,48.363,69.854z M49.852,74.054
	c0-0.84,0.145-1.848-1.009-1.848c-1.416,0-2.904,1.199-2.904,2.664c0,1.344,1.177,2.137,2.448,2.137
	c1.416,0,1.465-0.721,1.465-1.896V74.054z"/>
<path fill="#00A5E7" d="M56.258,79.839c-0.84,0-0.744-8.041-0.744-8.594c0-1.127-0.096-11.881,0.984-11.881h2.568
	c0.313,0,0.576,0.145,0.576,0.528c0,0.479-0.863,2.688-0.889,8.929c0,0.84,0,1.92,0.313,1.92c0.816,0,3-3.168,3-5.76
	c0-0.601,0.24-0.504,0.744-0.504h1.465c0.48,0,1.031-0.145,1.031,0.527c0,3.313-2.615,5.473-2.615,5.953
	c0,0.504,0.984,0.888,1.969,2.111c0.982,1.225,1.967,3.265,1.967,6.121c0,0.72-0.455,0.648-1.057,0.648h-1.943
	c-0.648,0-0.863,0.023-0.889-0.744c-0.023-3.313-1.584-5.977-2.303-5.977c-0.313,0-1.416,0.359-1.416,1.512
	c0,2.928,0.6,4.488,0.6,4.92c0,0.265-0.24,0.289-0.6,0.289H56.258z"/>
<path fill="#00A5E7" d="M67.227,72.806c0-5.809,3.217-8.688,6.432-8.688c2.641,0,4.873,1.487,4.873,4.32
	c0,5.16-7.729,4.08-7.729,6.577c0,1.127,1.824,1.943,3.023,1.943c3.938,0,3.938-3,4.273-3c0.359,0,0.432,1.248,0.432,1.439
	c0,3.049-2.352,4.801-5.232,4.801C69.002,80.199,67.227,76.646,67.227,72.806z M70.467,70.43c0,0.264,0.119,0.528,0.432,0.528
	c0.289,0,4.656-0.961,4.656-2.185c0-1.177-1.104-1.824-2.016-1.824C71.594,66.95,70.467,69.039,70.467,70.43z"/>
</svg>
